<mxfile host="app.diagrams.net" modified="2023-09-21T13:40:15.998Z" agent="Mozilla/5.0 (Windows NT 6.3; Win64; x64; rv:109.0) Gecko/20100101 Firefox/115.0" etag="GpGsMwzkgX1nKfL2m8MN" version="21.8.0" type="github">
  <diagram id="R2lEEEUBdFMjLlhIrx00" name="Page-1">
    <mxGraphModel dx="880" dy="440" grid="1" gridSize="10" guides="1" tooltips="1" connect="1" arrows="1" fold="1" page="1" pageScale="1" pageWidth="850" pageHeight="1100" math="0" shadow="0" extFonts="Permanent Marker^https://fonts.googleapis.com/css?family=Permanent+Marker">
      <root>
        <mxCell id="0" />
        <mxCell id="1" parent="0" />
        <mxCell id="TNkii-dBvrVCI2CTxZwi-8" style="edgeStyle=orthogonalEdgeStyle;rounded=0;orthogonalLoop=1;jettySize=auto;html=1;exitX=1;exitY=0.25;exitDx=0;exitDy=0;" edge="1" parent="1" source="TNkii-dBvrVCI2CTxZwi-2" target="TNkii-dBvrVCI2CTxZwi-7">
          <mxGeometry relative="1" as="geometry" />
        </mxCell>
        <mxCell id="TNkii-dBvrVCI2CTxZwi-9" style="edgeStyle=none;rounded=0;orthogonalLoop=1;jettySize=auto;html=1;exitX=0.5;exitY=1;exitDx=0;exitDy=0;" edge="1" parent="1" source="TNkii-dBvrVCI2CTxZwi-2">
          <mxGeometry relative="1" as="geometry">
            <mxPoint x="165" y="300" as="targetPoint" />
          </mxGeometry>
        </mxCell>
        <mxCell id="TNkii-dBvrVCI2CTxZwi-2" value="" style="whiteSpace=wrap;html=1;aspect=fixed;" vertex="1" parent="1">
          <mxGeometry x="80" y="70" width="170" height="170" as="geometry" />
        </mxCell>
        <mxCell id="TNkii-dBvrVCI2CTxZwi-1" value="" style="outlineConnect=0;dashed=0;verticalLabelPosition=bottom;verticalAlign=top;align=center;html=1;shape=mxgraph.aws3.ec2;fillColor=#F58534;gradientColor=none;" vertex="1" parent="1">
          <mxGeometry x="125.88" y="110" width="78.25" height="110" as="geometry" />
        </mxCell>
        <mxCell id="TNkii-dBvrVCI2CTxZwi-3" value="AWS" style="text;html=1;strokeColor=none;fillColor=none;align=center;verticalAlign=middle;whiteSpace=wrap;rounded=0;" vertex="1" parent="1">
          <mxGeometry x="125.88" y="40" width="60" height="30" as="geometry" />
        </mxCell>
        <mxCell id="TNkii-dBvrVCI2CTxZwi-5" value="EC2" style="text;html=1;strokeColor=none;fillColor=none;align=center;verticalAlign=middle;whiteSpace=wrap;rounded=0;" vertex="1" parent="1">
          <mxGeometry x="135" y="80" width="60" height="30" as="geometry" />
        </mxCell>
        <mxCell id="TNkii-dBvrVCI2CTxZwi-6" value="" style="dashed=0;outlineConnect=0;html=1;align=center;labelPosition=center;verticalLabelPosition=bottom;verticalAlign=top;shape=mxgraph.weblogos.github" vertex="1" parent="1">
          <mxGeometry x="120" y="310" width="75" height="75" as="geometry" />
        </mxCell>
        <mxCell id="TNkii-dBvrVCI2CTxZwi-7" value="" style="dashed=0;outlineConnect=0;html=1;align=center;labelPosition=center;verticalLabelPosition=bottom;verticalAlign=top;shape=mxgraph.webicons.apache;gradientColor=#DFDEDE" vertex="1" parent="1">
          <mxGeometry x="339.99999999999994" y="20" width="102.4" height="102.4" as="geometry" />
        </mxCell>
      </root>
    </mxGraphModel>
  </diagram>
</mxfile>
